# xmcd CD database file
#
# Track frame offsets:
#	150
#	20820
#	40020
#	60805
#
# Disc length: 1080 seconds
#
# Revision: 0
# Processed by: cddbd v1.5.1PL0 Copyright (c) Steve Scherf et al.
# Submitted via: CDex 1.51
#
DISCID=26043604
DTITLE=モーニング娘。 - モーニングコーヒー (EP)
DYEAR=1998
DGENRE=Pop
TTITLE0=モーニングコーヒー
TTITLE1=愛の種
TTITLE2=モーニングコーヒー (Instrumental)
TTITLE3=モーニングコーヒー (Unreleased "B♭" Version)
EXTD=YEAR: 1998
EXTT0=
EXTT1=
EXTT2=
EXTT3=
PLAYORDER=
